# xmcd
#
# Track frame offsets:
#	150
#	17866
#	33704
#	47662
#	61159
#	80811
#	98224
#	119947
#	141943
#	160047
#	176501
#	194435
#	206772
#	224361
#	237388
#	247895
#	265090
#	282853
#
# Disc length: 3975 seconds
#
# Revision: 0
# Processed by: cddbd v1.5.2PL0 Copyright (c) Steve Scherf et al.
# Submitted via: audiograbber 1.83.01
#
DISCID=110f8512
DTITLE=—борник - Woman 2 Woman CD2
DYEAR=1900
DGENRE=
TTITLE0=Judie Tzuke - Stay With Me Till Dawn
TTITLE1=Kim Wilde - You Came
TTITLE2=All About Eve - Martha's Harbour
TTITLE3=Babara Dickson - Answer Me
TTITLE4=Brenda Russell - Piano In The Dark
TTITLE5=Charlene - I've Never Been To Me
TTITLE6=Hzel O'Coonor - Will You
TTITLE7=Jean Carn - Don't Let It Go To Your Head
TTITLE8=The Passions - I'm In Love Withr A German Film Star
TTITLE9=Mica Paris - My One Temptation
TTITLE10=Rita Coolidge - (Your Lovbe Has Lifted Me) Higher And Higher
TTITLE11=Sam Brown - Kissing Gate
TTITLE12=Syreeta - Your Kiss Is Sweet
TTITLE13=The Belle Stars - Sign Of The Times
TTITLE14=The Shangri-Las - Remember (Walkn' In The Sand)
TTITLE15=Tiffany - I Think We're Alone Now
TTITLE16=Animotion - Obsession
TTITLE17=Yvonne Fair  - It Shoud Have Been Me
EXTD=
EXTT0=
EXTT1=
EXTT2=
EXTT3=
EXTT4=
EXTT5=
EXTT6=
EXTT7=
EXTT8=
EXTT9=
EXTT10=
EXTT11=
EXTT12=
EXTT13=
EXTT14=
EXTT15=
EXTT16=
EXTT17=
PLAYORDER=
